# xmcd CD database file
# Copyright (C) 1993-1996 Ti Kan
#
# Track frame offsets:
# 182
# 28012
# 44440
# 59797
# 75747
# 90447
# 113742
# 124877
# 136955
# 159645
# 174600
# 183247
# 196332
# 211955
#
# Disc length: 3033 seconds
#
# Revision: 0
# Processed by: cddbd v1.4b41PL1 Copyright (c) Steve Scherf et al.
# Submitted via: inCDius 1.1b5
#
DISCID=c30bd70e
DTITLE=B. B. King - Everyday I Have The Blues
DYEAR=1900
DGENRE=
TTITLE0=Sweet Sixteen
TTITLE1=The Other Night Blues
TTITLE2=It's My Own Fault Baby
TTITLE3=Long Nights
TTITLE4=Mr. Pawnbroker
TTITLE5=You Done Lost Your Good Thing Now
TTITLE6=Catfish Blues
TTITLE7=Paying The Cost To Be The Boss
TTITLE8=Everyday I Have The Blues
TTITLE9=B. B. Boogie
TTITLE10=A New Way Of Driving
TTITLE11=Walkin' And Cryin'
TTITLE12=How Blue Can You Get
TTITLE13=The Letter
EXTD=
EXTT0=
EXTT1=
EXTT2=
EXTT3=
EXTT4=
EXTT5=
EXTT6=
EXTT7=
EXTT8=
EXTT9=
EXTT10=
EXTT11=
EXTT12=
EXTT13=
PLAYORDER=
